<?xml version="1.0" encoding="utf-8"?>
<!-- Generator: Adobe Illustrator 27.6.0, SVG Export Plug-In . SVG Version: 6.00 Build 0)  -->
<svg version="1.1" id="Layer_1" xmlns="http://www.w3.org/2000/svg" xmlns:xlink="http://www.w3.org/1999/xlink" x="0px" y="0px"
	 viewBox="0 0 200 200" style="enable-background:new 0 0 200 200;" xml:space="preserve">
<style type="text/css">
	.st0{fill:#EC6545;stroke:#0B2128;stroke-miterlimit:10;}
	.st1{fill:#28D6A5;stroke:#0B2128;stroke-miterlimit:10;}
	.st2{fill:none;stroke:#0B2128;stroke-miterlimit:10;}
</style>
<path class="st0" d="M100,48.2c-28.6,0-51.8,23.2-51.8,51.8c0,28.6,23.2,51.7,51.8,51.7s51.8-23.2,51.8-51.7
	C151.8,71.4,128.6,48.2,100,48.2z M100,117.8c-9.8,0-17.7-7.9-17.7-17.7c0-9.8,7.9-17.7,17.7-17.7s17.7,7.9,17.7,17.7
	C117.7,109.8,109.8,117.8,100,117.8z"/>
<g>
	<path class="st1" d="M58.5,100c0-28.2,18.1-51.1,40.5-51.7C74.1,48.9,54,71.8,54,100c0,28.2,20.1,51.2,45.1,51.7
		C76.6,151.1,58.5,128.2,58.5,100z"/>
	<path class="st0" d="M101.1,48.3c-0.4,0-0.7,0-1.1,0c-0.3,0-0.6,0-0.8,0h-0.1C76.6,48.9,58.5,71.8,58.5,100
		c0,28.2,18.1,51.1,40.5,51.7h0.1c0.3,0,0.5,0,0.8,0c0.4,0,0.7,0,1.1,0c24.9-0.6,45-23.5,45-51.7C146,71.8,126,48.9,101.1,48.3z
		 M94.2,100c0-9.8,5.7-17.8,12.8-17.8c4.9,0,8.9,7.9,8.9,17.8c0,9.8-4,17.8-8.9,17.8C99.9,117.8,94.2,109.8,94.2,100z"/>
	<path class="st1" d="M119.8,100c0,9.8-5.7,17.8-12.8,17.8c4.9,0,8.9-8,8.9-17.8c0-9.8-4-17.8-8.9-17.8
		C114.1,82.2,119.8,90.2,119.8,100z"/>
</g>
<g>
	<path class="st0" d="M100,48.2c-17.9,0-32.4,23.2-32.4,51.7c0,28.6,14.5,51.8,32.4,51.8c22.3,0,40.3-23.2,40.3-51.8
		C140.3,71.4,122.3,48.2,100,48.2z M102.9,117.3c-3.1-4.5-4.9-10.6-4.9-17.3c0-6.7,1.9-12.8,4.9-17.3c3.1,4.5,4.9,10.6,4.9,17.3
		C107.9,106.7,106,112.8,102.9,117.3z"/>
	<path class="st1" d="M100,151.8c-22.3,0-40.3-23.2-40.3-51.8c0-28.6,18-51.7,40.3-51.7c-17.9,0-32.4,23.2-32.4,51.7
		C67.6,128.6,82.1,151.8,100,151.8z"/>
	<path class="st2" d="M109.6,123.5C102.8,119.9,98,110.7,98,100c0-11.2,5.2-20.7,12.4-24"/>
</g>
<g>
	<path class="st0" d="M131.2,100c0,31.4-13.1,50.5-29.6,51.7c-0.3,0-0.5,0-0.8,0c-0.3,0-0.5,0-0.8,0c-13.9,0-25.1-23.2-25.1-51.8
		c0-28.6,11.2-51.8,25.1-51.8C117.2,48.2,131.2,67.6,131.2,100z"/>
	<path class="st1" d="M100,151.7c-17.2,0-31.2-19.4-31.2-51.8s14-51.8,31.2-51.8c-7.8,0-18.2,21.1-18.2,51.8S92.2,151.7,100,151.7z"
		/>
	<path class="st2" d="M112,123.5c-2.6-3.6-3.7-15-3.7-23.5c0-8.9,1.2-20.7,4-24"/>
</g>
<g>
	<path class="st1" d="M79.4,68.9v62.2c0,11.4,9.2,20.6,20.6,20.6V48.2c-5.7,0-10.9,2.3-14.6,6C81.7,58,79.4,63.2,79.4,68.9z"/>
	<path class="st0" d="M100,48.2v103.5c11.4,0,20.6-9.2,20.6-20.6V68.9C120.6,57.5,111.4,48.2,100,48.2z"/>
</g>
<g>
	<path class="st1" d="M68.8,100c0,31.4,13.1,50.5,29.6,51.7c0.3,0,0.5,0,0.8,0c0.3,0,0.5,0,0.8,0c13.9,0,25.1-23.2,25.1-51.8
		c0-28.6-11.2-51.8-25.1-51.8C82.8,48.2,68.8,67.6,68.8,100z"/>
	<path class="st0" d="M100,151.7c17.2,0,31.2-19.4,31.2-51.8s-14-51.8-31.2-51.8c7.8,0,18.2,21.1,18.2,51.8S107.8,151.7,100,151.7z"
		/>
	<path class="st2" d="M88,123.5c2.6-3.6,3.7-15,3.7-23.5c0-8.9-1.2-20.7-4-24"/>
</g>
<g>
	<path class="st1" d="M59.7,100c0,28.6,18,51.8,40.3,51.8c17.9,0,32.4-23.2,32.4-51.8c0-28.6-14.5-51.7-32.4-51.7
		C77.7,48.2,59.7,71.4,59.7,100z M92.1,100c0-6.7,1.9-12.8,4.9-17.3c3.1,4.5,4.9,10.6,4.9,17.3c0,6.7-1.9,12.8-4.9,17.3
		C94,112.8,92.1,106.7,92.1,100z"/>
	<path class="st0" d="M100,151.8c22.3,0,40.3-23.2,40.3-51.8c0-28.6-18-51.7-40.3-51.7c17.9,0,32.4,23.2,32.4,51.7
		C132.4,128.6,117.9,151.8,100,151.8z"/>
	<path class="st2" d="M90.4,123.5c6.8-3.6,11.6-12.8,11.6-23.5c0-11.2-5.2-20.7-12.4-24"/>
</g>
<g>
	<path class="st0" d="M100.9,151.7c25-0.5,45.1-23.5,45.1-51.7c0-28.2-20.1-51.1-45.1-51.7c22.5,0.7,40.5,23.5,40.5,51.7
		C141.5,128.2,123.4,151.1,100.9,151.7z"/>
	<path class="st1" d="M54,100c0,28.2,20,51.1,45,51.7c0.4,0,0.7,0,1.1,0c0.3,0,0.6,0,0.8,0h0.1c22.5-0.6,40.5-23.5,40.5-51.7
		c0-28.2-18.1-51.1-40.5-51.7h-0.1c-0.3,0-0.5,0-0.8,0c-0.4,0-0.7,0-1.1,0C74,48.9,54,71.8,54,100z M93,117.8c-4.9,0-8.9-8-8.9-17.8
		c0-9.8,4-17.8,8.9-17.8c7.1,0,12.8,7.9,12.8,17.8C105.8,109.8,100.1,117.8,93,117.8z"/>
	<path class="st0" d="M80.2,100c0,9.8,5.7,17.8,12.8,17.8c-4.9,0-8.9-8-8.9-17.8c0-9.8,4-17.8,8.9-17.8
		C85.9,82.2,80.2,90.2,80.2,100z"/>
</g>
<path class="st1" d="M100,48.2c-28.6,0-51.8,23.2-51.8,51.8c0,28.6,23.2,51.7,51.8,51.7s51.8-23.2,51.8-51.7
	C151.8,71.4,128.6,48.2,100,48.2z M100,117.8c-9.8,0-17.7-7.9-17.7-17.7c0-9.8,7.9-17.7,17.7-17.7s17.7,7.9,17.7,17.7
	C117.7,109.8,109.8,117.8,100,117.8z"/>
<g>
	<path class="st0" d="M99.1,48.3C74.1,48.8,54,71.8,54,100c0,28.2,20.1,51.1,45.1,51.7c-22.5-0.7-40.5-23.5-40.5-51.7
		C58.5,71.8,76.6,48.9,99.1,48.3z"/>
	<path class="st1" d="M146,100c0-28.2-20-51.1-45-51.7c-0.4,0-0.7,0-1.1,0c-0.3,0-0.6,0-0.8,0h-0.1C76.6,48.9,58.5,71.8,58.5,100
		c0,28.2,18.1,51.1,40.5,51.7h0.1c0.3,0,0.5,0,0.8,0c0.4,0,0.7,0,1.1,0C126,151.1,146,128.2,146,100z M107,82.2
		c4.9,0,8.9,8,8.9,17.8c0,9.8-4,17.8-8.9,17.8c-7.1,0-12.8-7.9-12.8-17.8C94.2,90.2,99.9,82.2,107,82.2z"/>
	<path class="st0" d="M119.8,100c0-9.8-5.7-17.8-12.8-17.8c4.9,0,8.9,8,8.9,17.8c0,9.8-4,17.8-8.9,17.8
		C114.1,117.8,119.8,109.8,119.8,100z"/>
</g>
<g>
	<path class="st1" d="M140.3,100c0-28.6-18-51.8-40.3-51.8c-17.9,0-32.4,23.2-32.4,51.8c0,28.6,14.5,51.7,32.4,51.7
		C122.3,151.8,140.3,128.6,140.3,100z M107.9,100c0,6.7-1.9,12.8-4.9,17.3c-3.1-4.5-4.9-10.6-4.9-17.3c0-6.7,1.9-12.8,4.9-17.3
		C106,87.2,107.9,93.3,107.9,100z"/>
	<path class="st0" d="M100,48.2c-22.3,0-40.3,23.2-40.3,51.8c0,28.6,18,51.7,40.3,51.7c-17.9,0-32.4-23.2-32.4-51.7
		C67.6,71.4,82.1,48.2,100,48.2z"/>
	<path class="st2" d="M109.6,76.5C102.8,80.1,98,89.3,98,100c0,11.2,5.2,20.7,12.4,24"/>
</g>
<g>
	<path class="st1" d="M131.2,100c0-31.4-13.1-50.5-29.6-51.7c-0.3,0-0.5,0-0.8,0c-0.3,0-0.5,0-0.8,0c-13.9,0-25.1,23.2-25.1,51.8
		c0,28.6,11.2,51.8,25.1,51.8C117.2,151.8,131.2,132.4,131.2,100z"/>
	<path class="st0" d="M100,48.3c-17.2,0-31.2,19.4-31.2,51.8s14,51.8,31.2,51.8c-7.8,0-18.2-21.1-18.2-51.8S92.2,48.3,100,48.3z"/>
	<path class="st2" d="M112,76.5c-2.6,3.6-3.7,15-3.7,23.5c0,8.9,1.2,20.7,4,24"/>
</g>
<g>
	<path class="st1" d="M120.6,131.1V68.9c0-11.4-9.2-20.6-20.6-20.6v103.5c5.7,0,10.9-2.3,14.6-6C118.3,142,120.6,136.8,120.6,131.1z
		"/>
	<path class="st0" d="M100,151.8V48.2c-11.4,0-20.6,9.2-20.6,20.6v62.2C79.4,142.5,88.6,151.8,100,151.8z"/>
</g>
<g>
	<path class="st0" d="M68.8,100c0-31.4,13.1-50.5,29.6-51.7c0.3,0,0.5,0,0.8,0c0.3,0,0.5,0,0.8,0c13.9,0,25.1,23.2,25.1,51.8
		c0,28.6-11.2,51.8-25.1,51.8C82.8,151.8,68.8,132.4,68.8,100z"/>
	<path class="st1" d="M100,48.3c17.2,0,31.2,19.4,31.2,51.8s-14,51.8-31.2,51.8c7.8,0,18.2-21.1,18.2-51.8S107.8,48.3,100,48.3z"/>
	<path class="st2" d="M88,76.5c2.6,3.6,3.7,15,3.7,23.5c0,8.9-1.2,20.7-4,24"/>
</g>
<g>
	<path class="st0" d="M100,151.8c17.9,0,32.4-23.2,32.4-51.7c0-28.6-14.5-51.8-32.4-51.8c-22.3,0-40.3,23.2-40.3,51.8
		C59.7,128.6,77.7,151.8,100,151.8z M97.1,82.7c3.1,4.5,4.9,10.6,4.9,17.3c0,6.7-1.9,12.8-4.9,17.3c-3.1-4.5-4.9-10.6-4.9-17.3
		C92.1,93.3,94,87.2,97.1,82.7z"/>
	<path class="st1" d="M100,48.2c22.3,0,40.3,23.2,40.3,51.8c0,28.6-18,51.7-40.3,51.7c17.9,0,32.4-23.2,32.4-51.7
		C132.4,71.4,117.9,48.2,100,48.2z"/>
	<path class="st2" d="M90.4,76.5C97.2,80.1,102,89.3,102,100c0,11.2-5.2,20.7-12.4,24"/>
</g>
<g>
	<path class="st1" d="M141.5,100c0,28.2-18.1,51.1-40.5,51.7c25-0.6,45.1-23.5,45.1-51.7c0-28.2-20.1-51.2-45.1-51.7
		C123.4,48.9,141.5,71.8,141.5,100z"/>
	<path class="st0" d="M98.9,151.7c0.4,0,0.7,0,1.1,0c0.3,0,0.6,0,0.8,0h0.1c22.5-0.7,40.5-23.5,40.5-51.7
		c0-28.2-18.1-51.1-40.5-51.7h-0.1c-0.3,0-0.5,0-0.8,0c-0.4,0-0.7,0-1.1,0C74,48.9,54,71.8,54,100C54,128.2,74,151.1,98.9,151.7z
		 M105.8,100c0,9.8-5.7,17.8-12.8,17.8c-4.9,0-8.9-7.9-8.9-17.8c0-9.8,4-17.8,8.9-17.8C100.1,82.2,105.8,90.2,105.8,100z"/>
	<path class="st1" d="M80.2,100c0-9.8,5.7-17.8,12.8-17.8c-4.9,0-8.9,8-8.9,17.8c0,9.8,4,17.8,8.9,17.8
		C85.9,117.8,80.2,109.8,80.2,100z"/>
</g>
<path class="st0" d="M100,48.2c-28.6,0-51.8,23.2-51.8,51.8c0,28.6,23.2,51.7,51.8,51.7s51.8-23.2,51.8-51.7
	C151.8,71.4,128.6,48.2,100,48.2z M100,117.8c-9.8,0-17.7-7.9-17.7-17.7c0-9.8,7.9-17.7,17.7-17.7s17.7,7.9,17.7,17.7
	C117.7,109.8,109.8,117.8,100,117.8z"/>
</svg>
